<mxfile host="app.diagrams.net" agent="Mozilla/5.0 (Windows NT 10.0; Win64; x64) AppleWebKit/537.36 (KHTML, like Gecko) Chrome/134.0.0.0 Safari/537.36" version="26.1.3">
  <diagram name="Página-1" id="FgBEmW8f9GRCbMQrAjv0">
    <mxGraphModel dx="1687" dy="2035" grid="1" gridSize="10" guides="1" tooltips="1" connect="1" arrows="1" fold="1" page="1" pageScale="1" pageWidth="827" pageHeight="1169" math="0" shadow="0">
      <root>
        <mxCell id="0" />
        <mxCell id="1" parent="0" />
        <mxCell id="toJ_cXs9ojzFI7kkRFtx-52" style="edgeStyle=orthogonalEdgeStyle;rounded=0;orthogonalLoop=1;jettySize=auto;html=1;entryX=1;entryY=0.5;entryDx=0;entryDy=0;endArrow=none;startFill=1;startArrow=classic;" edge="1" parent="1" source="toJ_cXs9ojzFI7kkRFtx-5" target="toJ_cXs9ojzFI7kkRFtx-14">
          <mxGeometry relative="1" as="geometry" />
        </mxCell>
        <mxCell id="toJ_cXs9ojzFI7kkRFtx-64" value="1:n" style="edgeLabel;html=1;align=center;verticalAlign=middle;resizable=0;points=[];" vertex="1" connectable="0" parent="toJ_cXs9ojzFI7kkRFtx-52">
          <mxGeometry x="-0.4486" y="1" relative="1" as="geometry">
            <mxPoint x="9" y="-50" as="offset" />
          </mxGeometry>
        </mxCell>
        <mxCell id="toJ_cXs9ojzFI7kkRFtx-5" value="Gestor" style="swimlane;fontStyle=1;align=center;verticalAlign=top;childLayout=stackLayout;horizontal=1;startSize=26;horizontalStack=0;resizeParent=1;resizeParentMax=0;resizeLast=0;collapsible=1;marginBottom=0;whiteSpace=wrap;html=1;fillColor=#dae8fc;strokeColor=#6c8ebf;strokeWidth=2;" vertex="1" parent="1">
          <mxGeometry x="440" y="200" width="160" height="120" as="geometry" />
        </mxCell>
        <mxCell id="toJ_cXs9ojzFI7kkRFtx-6" value="int id&lt;div&gt;String nombre&lt;/div&gt;" style="text;strokeColor=none;fillColor=none;align=left;verticalAlign=top;spacingLeft=4;spacingRight=4;overflow=hidden;rotatable=0;points=[[0,0.5],[1,0.5]];portConstraint=eastwest;whiteSpace=wrap;html=1;" vertex="1" parent="toJ_cXs9ojzFI7kkRFtx-5">
          <mxGeometry y="26" width="160" height="44" as="geometry" />
        </mxCell>
        <mxCell id="toJ_cXs9ojzFI7kkRFtx-7" value="" style="line;strokeWidth=1;fillColor=none;align=left;verticalAlign=middle;spacingTop=-1;spacingLeft=3;spacingRight=3;rotatable=0;labelPosition=right;points=[];portConstraint=eastwest;strokeColor=inherit;" vertex="1" parent="toJ_cXs9ojzFI7kkRFtx-5">
          <mxGeometry y="70" width="160" height="8" as="geometry" />
        </mxCell>
        <mxCell id="toJ_cXs9ojzFI7kkRFtx-8" value="GestionarTramite&lt;div&gt;darServicio&lt;/div&gt;" style="text;strokeColor=none;fillColor=none;align=left;verticalAlign=top;spacingLeft=4;spacingRight=4;overflow=hidden;rotatable=0;points=[[0,0.5],[1,0.5]];portConstraint=eastwest;whiteSpace=wrap;html=1;" vertex="1" parent="toJ_cXs9ojzFI7kkRFtx-5">
          <mxGeometry y="78" width="160" height="42" as="geometry" />
        </mxCell>
        <mxCell id="toJ_cXs9ojzFI7kkRFtx-51" style="edgeStyle=orthogonalEdgeStyle;rounded=0;orthogonalLoop=1;jettySize=auto;html=1;entryX=0;entryY=0.5;entryDx=0;entryDy=0;endArrow=none;startFill=1;startArrow=classic;" edge="1" parent="1" source="toJ_cXs9ojzFI7kkRFtx-9" target="toJ_cXs9ojzFI7kkRFtx-14">
          <mxGeometry relative="1" as="geometry" />
        </mxCell>
        <mxCell id="toJ_cXs9ojzFI7kkRFtx-65" value="1:1" style="edgeLabel;html=1;align=center;verticalAlign=middle;resizable=0;points=[];" vertex="1" connectable="0" parent="toJ_cXs9ojzFI7kkRFtx-51">
          <mxGeometry x="-0.5671" y="2" relative="1" as="geometry">
            <mxPoint x="-12" y="-34" as="offset" />
          </mxGeometry>
        </mxCell>
        <mxCell id="toJ_cXs9ojzFI7kkRFtx-9" value="Cliente" style="swimlane;fontStyle=1;align=center;verticalAlign=top;childLayout=stackLayout;horizontal=1;startSize=26;horizontalStack=0;resizeParent=1;resizeParentMax=0;resizeLast=0;collapsible=1;marginBottom=0;whiteSpace=wrap;html=1;fillColor=#dae8fc;strokeColor=#6c8ebf;strokeWidth=2;" vertex="1" parent="1">
          <mxGeometry x="30" y="200" width="160" height="114" as="geometry" />
        </mxCell>
        <mxCell id="toJ_cXs9ojzFI7kkRFtx-10" value="int id&lt;div&gt;String nombre&lt;/div&gt;&lt;div&gt;int numTlf&lt;/div&gt;" style="text;strokeColor=none;fillColor=none;align=left;verticalAlign=top;spacingLeft=4;spacingRight=4;overflow=hidden;rotatable=0;points=[[0,0.5],[1,0.5]];portConstraint=eastwest;whiteSpace=wrap;html=1;" vertex="1" parent="toJ_cXs9ojzFI7kkRFtx-9">
          <mxGeometry y="26" width="160" height="54" as="geometry" />
        </mxCell>
        <mxCell id="toJ_cXs9ojzFI7kkRFtx-11" value="" style="line;strokeWidth=1;fillColor=none;align=left;verticalAlign=middle;spacingTop=-1;spacingLeft=3;spacingRight=3;rotatable=0;labelPosition=right;points=[];portConstraint=eastwest;strokeColor=inherit;" vertex="1" parent="toJ_cXs9ojzFI7kkRFtx-9">
          <mxGeometry y="80" width="160" height="8" as="geometry" />
        </mxCell>
        <mxCell id="toJ_cXs9ojzFI7kkRFtx-12" value="get/set...&lt;div&gt;&lt;br&gt;&lt;/div&gt;" style="text;strokeColor=none;fillColor=none;align=left;verticalAlign=top;spacingLeft=4;spacingRight=4;overflow=hidden;rotatable=0;points=[[0,0.5],[1,0.5]];portConstraint=eastwest;whiteSpace=wrap;html=1;" vertex="1" parent="toJ_cXs9ojzFI7kkRFtx-9">
          <mxGeometry y="88" width="160" height="26" as="geometry" />
        </mxCell>
        <mxCell id="toJ_cXs9ojzFI7kkRFtx-55" style="edgeStyle=orthogonalEdgeStyle;rounded=0;orthogonalLoop=1;jettySize=auto;html=1;entryX=0.5;entryY=0;entryDx=0;entryDy=0;" edge="1" parent="1" source="toJ_cXs9ojzFI7kkRFtx-13" target="toJ_cXs9ojzFI7kkRFtx-17">
          <mxGeometry relative="1" as="geometry" />
        </mxCell>
        <mxCell id="toJ_cXs9ojzFI7kkRFtx-63" value="1:n" style="edgeLabel;html=1;align=center;verticalAlign=middle;resizable=0;points=[];" vertex="1" connectable="0" parent="toJ_cXs9ojzFI7kkRFtx-55">
          <mxGeometry x="-0.0431" relative="1" as="geometry">
            <mxPoint x="44" y="20" as="offset" />
          </mxGeometry>
        </mxCell>
        <mxCell id="toJ_cXs9ojzFI7kkRFtx-56" style="edgeStyle=orthogonalEdgeStyle;rounded=0;orthogonalLoop=1;jettySize=auto;html=1;" edge="1" parent="1" source="toJ_cXs9ojzFI7kkRFtx-13" target="toJ_cXs9ojzFI7kkRFtx-25">
          <mxGeometry relative="1" as="geometry" />
        </mxCell>
        <mxCell id="toJ_cXs9ojzFI7kkRFtx-62" value="1:1" style="edgeLabel;html=1;align=center;verticalAlign=middle;resizable=0;points=[];" vertex="1" connectable="0" parent="toJ_cXs9ojzFI7kkRFtx-56">
          <mxGeometry x="-0.0092" y="1" relative="1" as="geometry">
            <mxPoint x="-41" y="19" as="offset" />
          </mxGeometry>
        </mxCell>
        <mxCell id="toJ_cXs9ojzFI7kkRFtx-13" value="Trámite" style="swimlane;fontStyle=1;align=center;verticalAlign=top;childLayout=stackLayout;horizontal=1;startSize=26;horizontalStack=0;resizeParent=1;resizeParentMax=0;resizeLast=0;collapsible=1;marginBottom=0;whiteSpace=wrap;html=1;fillColor=#dae8fc;strokeColor=#6c8ebf;strokeWidth=2;" vertex="1" parent="1">
          <mxGeometry x="230" y="360" width="180" height="160" as="geometry" />
        </mxCell>
        <mxCell id="toJ_cXs9ojzFI7kkRFtx-14" value="int idClie&lt;div&gt;int idGest&lt;/div&gt;&lt;div&gt;List&amp;lt;Documento&amp;gt; docs&lt;/div&gt;&lt;div&gt;int idFactura&lt;/div&gt;" style="text;strokeColor=none;fillColor=none;align=left;verticalAlign=top;spacingLeft=4;spacingRight=4;overflow=hidden;rotatable=0;points=[[0,0.5],[1,0.5]];portConstraint=eastwest;whiteSpace=wrap;html=1;" vertex="1" parent="toJ_cXs9ojzFI7kkRFtx-13">
          <mxGeometry y="26" width="180" height="74" as="geometry" />
        </mxCell>
        <mxCell id="toJ_cXs9ojzFI7kkRFtx-15" value="" style="line;strokeWidth=1;fillColor=none;align=left;verticalAlign=middle;spacingTop=-1;spacingLeft=3;spacingRight=3;rotatable=0;labelPosition=right;points=[];portConstraint=eastwest;strokeColor=inherit;" vertex="1" parent="toJ_cXs9ojzFI7kkRFtx-13">
          <mxGeometry y="100" width="180" height="8" as="geometry" />
        </mxCell>
        <mxCell id="toJ_cXs9ojzFI7kkRFtx-16" value="generarFactura(pagarTramite())&lt;div&gt;gestDocs(idGest)&lt;/div&gt;&lt;div&gt;pagarTramite()&lt;/div&gt;" style="text;strokeColor=none;fillColor=none;align=left;verticalAlign=top;spacingLeft=4;spacingRight=4;overflow=hidden;rotatable=0;points=[[0,0.5],[1,0.5]];portConstraint=eastwest;whiteSpace=wrap;html=1;" vertex="1" parent="toJ_cXs9ojzFI7kkRFtx-13">
          <mxGeometry y="108" width="180" height="52" as="geometry" />
        </mxCell>
        <mxCell id="toJ_cXs9ojzFI7kkRFtx-17" value="Documento" style="swimlane;fontStyle=1;align=center;verticalAlign=top;childLayout=stackLayout;horizontal=1;startSize=26;horizontalStack=0;resizeParent=1;resizeParentMax=0;resizeLast=0;collapsible=1;marginBottom=0;whiteSpace=wrap;html=1;fillColor=#dae8fc;strokeColor=#6c8ebf;strokeWidth=2;" vertex="1" parent="1">
          <mxGeometry x="360" y="590" width="160" height="86" as="geometry" />
        </mxCell>
        <mxCell id="toJ_cXs9ojzFI7kkRFtx-18" value="id doc" style="text;strokeColor=none;fillColor=none;align=left;verticalAlign=top;spacingLeft=4;spacingRight=4;overflow=hidden;rotatable=0;points=[[0,0.5],[1,0.5]];portConstraint=eastwest;whiteSpace=wrap;html=1;" vertex="1" parent="toJ_cXs9ojzFI7kkRFtx-17">
          <mxGeometry y="26" width="160" height="26" as="geometry" />
        </mxCell>
        <mxCell id="toJ_cXs9ojzFI7kkRFtx-19" value="" style="line;strokeWidth=1;fillColor=none;align=left;verticalAlign=middle;spacingTop=-1;spacingLeft=3;spacingRight=3;rotatable=0;labelPosition=right;points=[];portConstraint=eastwest;strokeColor=inherit;" vertex="1" parent="toJ_cXs9ojzFI7kkRFtx-17">
          <mxGeometry y="52" width="160" height="8" as="geometry" />
        </mxCell>
        <mxCell id="toJ_cXs9ojzFI7kkRFtx-20" value="obtenerInfo()" style="text;strokeColor=none;fillColor=none;align=left;verticalAlign=top;spacingLeft=4;spacingRight=4;overflow=hidden;rotatable=0;points=[[0,0.5],[1,0.5]];portConstraint=eastwest;whiteSpace=wrap;html=1;" vertex="1" parent="toJ_cXs9ojzFI7kkRFtx-17">
          <mxGeometry y="60" width="160" height="26" as="geometry" />
        </mxCell>
        <mxCell id="toJ_cXs9ojzFI7kkRFtx-57" style="edgeStyle=orthogonalEdgeStyle;rounded=0;orthogonalLoop=1;jettySize=auto;html=1;startArrow=classic;startFill=1;endSize=10;startSize=6;endArrow=diamondThin;endFill=1;" edge="1" parent="1" source="toJ_cXs9ojzFI7kkRFtx-21" target="toJ_cXs9ojzFI7kkRFtx-25">
          <mxGeometry relative="1" as="geometry" />
        </mxCell>
        <mxCell id="toJ_cXs9ojzFI7kkRFtx-61" value="1:1" style="edgeLabel;html=1;align=center;verticalAlign=middle;resizable=0;points=[];" vertex="1" connectable="0" parent="toJ_cXs9ojzFI7kkRFtx-57">
          <mxGeometry x="0.0179" relative="1" as="geometry">
            <mxPoint x="20" y="13" as="offset" />
          </mxGeometry>
        </mxCell>
        <mxCell id="toJ_cXs9ojzFI7kkRFtx-21" value="Pago" style="swimlane;fontStyle=1;align=center;verticalAlign=top;childLayout=stackLayout;horizontal=1;startSize=26;horizontalStack=0;resizeParent=1;resizeParentMax=0;resizeLast=0;collapsible=1;marginBottom=0;whiteSpace=wrap;html=1;fillColor=#dae8fc;strokeColor=#6c8ebf;" vertex="1" parent="1">
          <mxGeometry x="120" y="760" width="160" height="86" as="geometry" />
        </mxCell>
        <mxCell id="toJ_cXs9ojzFI7kkRFtx-22" value="int id" style="text;strokeColor=none;fillColor=none;align=left;verticalAlign=top;spacingLeft=4;spacingRight=4;overflow=hidden;rotatable=0;points=[[0,0.5],[1,0.5]];portConstraint=eastwest;whiteSpace=wrap;html=1;" vertex="1" parent="toJ_cXs9ojzFI7kkRFtx-21">
          <mxGeometry y="26" width="160" height="26" as="geometry" />
        </mxCell>
        <mxCell id="toJ_cXs9ojzFI7kkRFtx-23" value="" style="line;strokeWidth=1;fillColor=none;align=left;verticalAlign=middle;spacingTop=-1;spacingLeft=3;spacingRight=3;rotatable=0;labelPosition=right;points=[];portConstraint=eastwest;strokeColor=inherit;" vertex="1" parent="toJ_cXs9ojzFI7kkRFtx-21">
          <mxGeometry y="52" width="160" height="8" as="geometry" />
        </mxCell>
        <mxCell id="toJ_cXs9ojzFI7kkRFtx-24" value="cobrar()" style="text;strokeColor=none;fillColor=none;align=left;verticalAlign=top;spacingLeft=4;spacingRight=4;overflow=hidden;rotatable=0;points=[[0,0.5],[1,0.5]];portConstraint=eastwest;whiteSpace=wrap;html=1;" vertex="1" parent="toJ_cXs9ojzFI7kkRFtx-21">
          <mxGeometry y="60" width="160" height="26" as="geometry" />
        </mxCell>
        <mxCell id="toJ_cXs9ojzFI7kkRFtx-25" value="Factura" style="swimlane;fontStyle=1;align=center;verticalAlign=top;childLayout=stackLayout;horizontal=1;startSize=26;horizontalStack=0;resizeParent=1;resizeParentMax=0;resizeLast=0;collapsible=1;marginBottom=0;whiteSpace=wrap;html=1;fillColor=#dae8fc;strokeColor=#6c8ebf;strokeWidth=2;" vertex="1" parent="1">
          <mxGeometry x="120" y="590" width="160" height="124" as="geometry" />
        </mxCell>
        <mxCell id="toJ_cXs9ojzFI7kkRFtx-26" value="idClie&lt;div&gt;idGest&lt;/div&gt;&lt;div&gt;idTramite&lt;/div&gt;&lt;div&gt;idPago&lt;/div&gt;" style="text;strokeColor=none;fillColor=none;align=left;verticalAlign=top;spacingLeft=4;spacingRight=4;overflow=hidden;rotatable=0;points=[[0,0.5],[1,0.5]];portConstraint=eastwest;whiteSpace=wrap;html=1;" vertex="1" parent="toJ_cXs9ojzFI7kkRFtx-25">
          <mxGeometry y="26" width="160" height="64" as="geometry" />
        </mxCell>
        <mxCell id="toJ_cXs9ojzFI7kkRFtx-27" value="" style="line;strokeWidth=1;fillColor=none;align=left;verticalAlign=middle;spacingTop=-1;spacingLeft=3;spacingRight=3;rotatable=0;labelPosition=right;points=[];portConstraint=eastwest;strokeColor=inherit;" vertex="1" parent="toJ_cXs9ojzFI7kkRFtx-25">
          <mxGeometry y="90" width="160" height="8" as="geometry" />
        </mxCell>
        <mxCell id="toJ_cXs9ojzFI7kkRFtx-28" value="imprimir()" style="text;strokeColor=none;fillColor=none;align=left;verticalAlign=top;spacingLeft=4;spacingRight=4;overflow=hidden;rotatable=0;points=[[0,0.5],[1,0.5]];portConstraint=eastwest;whiteSpace=wrap;html=1;" vertex="1" parent="toJ_cXs9ojzFI7kkRFtx-25">
          <mxGeometry y="98" width="160" height="26" as="geometry" />
        </mxCell>
        <mxCell id="toJ_cXs9ojzFI7kkRFtx-29" value="Servicio" style="swimlane;fontStyle=1;align=center;verticalAlign=top;childLayout=stackLayout;horizontal=1;startSize=26;horizontalStack=0;resizeParent=1;resizeParentMax=0;resizeLast=0;collapsible=1;marginBottom=0;whiteSpace=wrap;html=1;fillColor=#dae8fc;strokeColor=#6c8ebf;strokeWidth=1;" vertex="1" parent="1">
          <mxGeometry x="640" y="200" width="160" height="114" as="geometry" />
        </mxCell>
        <mxCell id="toJ_cXs9ojzFI7kkRFtx-30" value="int id serv&lt;div&gt;String nombre&lt;/div&gt;&lt;div&gt;int idGest&lt;/div&gt;" style="text;strokeColor=none;fillColor=none;align=left;verticalAlign=top;spacingLeft=4;spacingRight=4;overflow=hidden;rotatable=0;points=[[0,0.5],[1,0.5]];portConstraint=eastwest;whiteSpace=wrap;html=1;" vertex="1" parent="toJ_cXs9ojzFI7kkRFtx-29">
          <mxGeometry y="26" width="160" height="54" as="geometry" />
        </mxCell>
        <mxCell id="toJ_cXs9ojzFI7kkRFtx-31" value="" style="line;strokeWidth=1;fillColor=none;align=left;verticalAlign=middle;spacingTop=-1;spacingLeft=3;spacingRight=3;rotatable=0;labelPosition=right;points=[];portConstraint=eastwest;strokeColor=inherit;" vertex="1" parent="toJ_cXs9ojzFI7kkRFtx-29">
          <mxGeometry y="80" width="160" height="8" as="geometry" />
        </mxCell>
        <mxCell id="toJ_cXs9ojzFI7kkRFtx-32" value="ofrecerServ&lt;div&gt;&lt;br&gt;&lt;/div&gt;" style="text;strokeColor=none;fillColor=none;align=left;verticalAlign=top;spacingLeft=4;spacingRight=4;overflow=hidden;rotatable=0;points=[[0,0.5],[1,0.5]];portConstraint=eastwest;whiteSpace=wrap;html=1;" vertex="1" parent="toJ_cXs9ojzFI7kkRFtx-29">
          <mxGeometry y="88" width="160" height="26" as="geometry" />
        </mxCell>
        <mxCell id="toJ_cXs9ojzFI7kkRFtx-53" style="edgeStyle=orthogonalEdgeStyle;rounded=0;orthogonalLoop=1;jettySize=auto;html=1;entryX=0.5;entryY=0;entryDx=0;entryDy=0;startArrow=none;startFill=0;endArrow=classic;endFill=1;" edge="1" parent="1" source="toJ_cXs9ojzFI7kkRFtx-33" target="toJ_cXs9ojzFI7kkRFtx-13">
          <mxGeometry relative="1" as="geometry" />
        </mxCell>
        <mxCell id="toJ_cXs9ojzFI7kkRFtx-60" style="edgeStyle=orthogonalEdgeStyle;rounded=0;orthogonalLoop=1;jettySize=auto;html=1;entryX=1;entryY=0.5;entryDx=0;entryDy=0;endArrow=classic;startFill=0;startArrow=diamondThin;endFill=1;startSize=10;endSize=6;" edge="1" parent="1" source="toJ_cXs9ojzFI7kkRFtx-33" target="toJ_cXs9ojzFI7kkRFtx-38">
          <mxGeometry relative="1" as="geometry" />
        </mxCell>
        <mxCell id="toJ_cXs9ojzFI7kkRFtx-68" value="1:1" style="edgeLabel;html=1;align=center;verticalAlign=middle;resizable=0;points=[];" vertex="1" connectable="0" parent="toJ_cXs9ojzFI7kkRFtx-60">
          <mxGeometry x="0.5404" y="-1" relative="1" as="geometry">
            <mxPoint x="-38" y="-9" as="offset" />
          </mxGeometry>
        </mxCell>
        <mxCell id="toJ_cXs9ojzFI7kkRFtx-33" value="Cita" style="swimlane;fontStyle=1;align=center;verticalAlign=top;childLayout=stackLayout;horizontal=1;startSize=26;horizontalStack=0;resizeParent=1;resizeParentMax=0;resizeLast=0;collapsible=1;marginBottom=0;whiteSpace=wrap;html=1;fillColor=#dae8fc;strokeColor=#6c8ebf;strokeWidth=1;" vertex="1" parent="1">
          <mxGeometry x="240" y="200" width="160" height="144" as="geometry" />
        </mxCell>
        <mxCell id="toJ_cXs9ojzFI7kkRFtx-34" value="int id&lt;div&gt;String fecha&lt;/div&gt;&lt;div&gt;int id clie&lt;/div&gt;&lt;div&gt;int id gest&lt;/div&gt;&lt;div&gt;int id tramite&lt;/div&gt;" style="text;strokeColor=none;fillColor=none;align=left;verticalAlign=top;spacingLeft=4;spacingRight=4;overflow=hidden;rotatable=0;points=[[0,0.5],[1,0.5]];portConstraint=eastwest;whiteSpace=wrap;html=1;" vertex="1" parent="toJ_cXs9ojzFI7kkRFtx-33">
          <mxGeometry y="26" width="160" height="84" as="geometry" />
        </mxCell>
        <mxCell id="toJ_cXs9ojzFI7kkRFtx-35" value="" style="line;strokeWidth=1;fillColor=none;align=left;verticalAlign=middle;spacingTop=-1;spacingLeft=3;spacingRight=3;rotatable=0;labelPosition=right;points=[];portConstraint=eastwest;strokeColor=inherit;" vertex="1" parent="toJ_cXs9ojzFI7kkRFtx-33">
          <mxGeometry y="110" width="160" height="8" as="geometry" />
        </mxCell>
        <mxCell id="toJ_cXs9ojzFI7kkRFtx-36" value="sendNotif()" style="text;strokeColor=none;fillColor=none;align=left;verticalAlign=top;spacingLeft=4;spacingRight=4;overflow=hidden;rotatable=0;points=[[0,0.5],[1,0.5]];portConstraint=eastwest;whiteSpace=wrap;html=1;" vertex="1" parent="toJ_cXs9ojzFI7kkRFtx-33">
          <mxGeometry y="118" width="160" height="26" as="geometry" />
        </mxCell>
        <mxCell id="toJ_cXs9ojzFI7kkRFtx-58" style="edgeStyle=orthogonalEdgeStyle;rounded=0;orthogonalLoop=1;jettySize=auto;html=1;startArrow=diamondThin;startFill=0;startSize=10;" edge="1" parent="1" source="toJ_cXs9ojzFI7kkRFtx-37" target="toJ_cXs9ojzFI7kkRFtx-9">
          <mxGeometry relative="1" as="geometry">
            <Array as="points">
              <mxPoint x="110" y="140" />
              <mxPoint x="110" y="140" />
            </Array>
          </mxGeometry>
        </mxCell>
        <mxCell id="toJ_cXs9ojzFI7kkRFtx-37" value="Notificación" style="swimlane;fontStyle=1;align=center;verticalAlign=top;childLayout=stackLayout;horizontal=1;startSize=26;horizontalStack=0;resizeParent=1;resizeParentMax=0;resizeLast=0;collapsible=1;marginBottom=0;whiteSpace=wrap;html=1;fillColor=#dae8fc;strokeColor=#6c8ebf;dashed=1;" vertex="1" parent="1">
          <mxGeometry x="40" y="18" width="160" height="110" as="geometry" />
        </mxCell>
        <mxCell id="toJ_cXs9ojzFI7kkRFtx-38" value="int idCliente&lt;div&gt;int idNotif&lt;/div&gt;&lt;div&gt;int idCita&lt;/div&gt;" style="text;strokeColor=none;fillColor=none;align=left;verticalAlign=top;spacingLeft=4;spacingRight=4;overflow=hidden;rotatable=0;points=[[0,0.5],[1,0.5]];portConstraint=eastwest;whiteSpace=wrap;html=1;" vertex="1" parent="toJ_cXs9ojzFI7kkRFtx-37">
          <mxGeometry y="26" width="160" height="44" as="geometry" />
        </mxCell>
        <mxCell id="toJ_cXs9ojzFI7kkRFtx-39" value="" style="line;strokeWidth=1;fillColor=none;align=left;verticalAlign=middle;spacingTop=-1;spacingLeft=3;spacingRight=3;rotatable=0;labelPosition=right;points=[];portConstraint=eastwest;strokeColor=inherit;" vertex="1" parent="toJ_cXs9ojzFI7kkRFtx-37">
          <mxGeometry y="70" width="160" height="8" as="geometry" />
        </mxCell>
        <mxCell id="toJ_cXs9ojzFI7kkRFtx-40" value="void enviarNotif(gmail)" style="text;strokeColor=none;fillColor=none;align=left;verticalAlign=top;spacingLeft=4;spacingRight=4;overflow=hidden;rotatable=0;points=[[0,0.5],[1,0.5]];portConstraint=eastwest;whiteSpace=wrap;html=1;" vertex="1" parent="toJ_cXs9ojzFI7kkRFtx-37">
          <mxGeometry y="78" width="160" height="32" as="geometry" />
        </mxCell>
        <mxCell id="toJ_cXs9ojzFI7kkRFtx-41" value="Administrador" style="swimlane;fontStyle=1;align=center;verticalAlign=top;childLayout=stackLayout;horizontal=1;startSize=26;horizontalStack=0;resizeParent=1;resizeParentMax=0;resizeLast=0;collapsible=1;marginBottom=0;whiteSpace=wrap;html=1;fillColor=#dae8fc;strokeColor=light-dark(#6c8ebf, #436697);gradientColor=#FFFFFF;gradientDirection=north;swimlaneFillColor=none;strokeWidth=3;" vertex="1" parent="1">
          <mxGeometry x="440" y="-54" width="160" height="182" as="geometry" />
        </mxCell>
        <mxCell id="toJ_cXs9ojzFI7kkRFtx-42" value="private int id&lt;div&gt;private String password&lt;/div&gt;&lt;div&gt;private List&amp;lt;Servicio&amp;gt; servs&lt;/div&gt;&lt;div&gt;private List&amp;lt;Cliente&amp;gt; clients&lt;/div&gt;&lt;div&gt;protected List&amp;lt;Gestor&amp;gt; gest&lt;/div&gt;" style="text;strokeColor=none;fillColor=none;align=left;verticalAlign=top;spacingLeft=4;spacingRight=4;overflow=hidden;rotatable=0;points=[[0,0.5],[1,0.5]];portConstraint=eastwest;whiteSpace=wrap;html=1;" vertex="1" parent="toJ_cXs9ojzFI7kkRFtx-41">
          <mxGeometry y="26" width="160" height="74" as="geometry" />
        </mxCell>
        <mxCell id="toJ_cXs9ojzFI7kkRFtx-43" value="" style="line;strokeWidth=1;fillColor=none;align=left;verticalAlign=middle;spacingTop=-1;spacingLeft=3;spacingRight=3;rotatable=0;labelPosition=right;points=[];portConstraint=eastwest;strokeColor=inherit;" vertex="1" parent="toJ_cXs9ojzFI7kkRFtx-41">
          <mxGeometry y="100" width="160" height="20" as="geometry" />
        </mxCell>
        <mxCell id="toJ_cXs9ojzFI7kkRFtx-44" value="get/setServicio&lt;div&gt;get/setGestor&lt;/div&gt;&lt;div&gt;get/setCliente&lt;/div&gt;" style="text;strokeColor=none;fillColor=none;align=left;verticalAlign=top;spacingLeft=4;spacingRight=4;overflow=hidden;rotatable=0;points=[[0,0.5],[1,0.5]];portConstraint=eastwest;whiteSpace=wrap;html=1;" vertex="1" parent="toJ_cXs9ojzFI7kkRFtx-41">
          <mxGeometry y="120" width="160" height="62" as="geometry" />
        </mxCell>
        <mxCell id="toJ_cXs9ojzFI7kkRFtx-45" style="edgeStyle=orthogonalEdgeStyle;rounded=0;orthogonalLoop=1;jettySize=auto;html=1;endArrow=none;startFill=1;startArrow=classic;" edge="1" parent="1" source="toJ_cXs9ojzFI7kkRFtx-5" target="toJ_cXs9ojzFI7kkRFtx-44">
          <mxGeometry relative="1" as="geometry">
            <Array as="points">
              <mxPoint x="520" y="140" />
              <mxPoint x="520" y="140" />
            </Array>
          </mxGeometry>
        </mxCell>
        <mxCell id="toJ_cXs9ojzFI7kkRFtx-46" style="edgeStyle=orthogonalEdgeStyle;rounded=0;orthogonalLoop=1;jettySize=auto;html=1;" edge="1" parent="1" source="toJ_cXs9ojzFI7kkRFtx-10" target="toJ_cXs9ojzFI7kkRFtx-34">
          <mxGeometry relative="1" as="geometry">
            <Array as="points">
              <mxPoint x="230" y="250" />
              <mxPoint x="230" y="250" />
            </Array>
          </mxGeometry>
        </mxCell>
        <mxCell id="toJ_cXs9ojzFI7kkRFtx-66" value="1:n" style="edgeLabel;html=1;align=center;verticalAlign=middle;resizable=0;points=[];" vertex="1" connectable="0" parent="toJ_cXs9ojzFI7kkRFtx-46">
          <mxGeometry x="0.0524" relative="1" as="geometry">
            <mxPoint x="-16" y="-10" as="offset" />
          </mxGeometry>
        </mxCell>
        <mxCell id="toJ_cXs9ojzFI7kkRFtx-47" style="edgeStyle=orthogonalEdgeStyle;rounded=0;orthogonalLoop=1;jettySize=auto;html=1;entryX=0;entryY=0.5;entryDx=0;entryDy=0;" edge="1" parent="1" source="toJ_cXs9ojzFI7kkRFtx-34" target="toJ_cXs9ojzFI7kkRFtx-6">
          <mxGeometry relative="1" as="geometry">
            <Array as="points">
              <mxPoint x="410" y="248" />
              <mxPoint x="410" y="248" />
            </Array>
          </mxGeometry>
        </mxCell>
        <mxCell id="toJ_cXs9ojzFI7kkRFtx-67" value="1:1" style="edgeLabel;html=1;align=center;verticalAlign=middle;resizable=0;points=[];" vertex="1" connectable="0" parent="toJ_cXs9ojzFI7kkRFtx-47">
          <mxGeometry x="-0.1155" relative="1" as="geometry">
            <mxPoint x="-8" y="-8" as="offset" />
          </mxGeometry>
        </mxCell>
        <mxCell id="toJ_cXs9ojzFI7kkRFtx-48" style="edgeStyle=orthogonalEdgeStyle;rounded=0;orthogonalLoop=1;jettySize=auto;html=1;endArrow=none;startFill=0;" edge="1" parent="1">
          <mxGeometry relative="1" as="geometry">
            <mxPoint x="109.99882352941171" y="170.2" as="sourcePoint" />
            <mxPoint x="520" y="128" as="targetPoint" />
            <Array as="points">
              <mxPoint x="310" y="170" />
              <mxPoint x="510" y="171" />
            </Array>
          </mxGeometry>
        </mxCell>
        <mxCell id="toJ_cXs9ojzFI7kkRFtx-49" style="edgeStyle=orthogonalEdgeStyle;rounded=0;orthogonalLoop=1;jettySize=auto;html=1;endArrow=diamondThin;startFill=1;startArrow=classic;endFill=1;sourcePerimeterSpacing=0;endSize=10;" edge="1" parent="1" target="toJ_cXs9ojzFI7kkRFtx-44">
          <mxGeometry relative="1" as="geometry">
            <mxPoint x="731.1544827586207" y="200" as="sourcePoint" />
            <mxPoint x="520" y="130" as="targetPoint" />
            <Array as="points">
              <mxPoint x="731" y="170" />
              <mxPoint x="520" y="170" />
            </Array>
          </mxGeometry>
        </mxCell>
        <mxCell id="toJ_cXs9ojzFI7kkRFtx-59" style="edgeStyle=orthogonalEdgeStyle;rounded=0;orthogonalLoop=1;jettySize=auto;html=1;" edge="1" parent="1" source="toJ_cXs9ojzFI7kkRFtx-30" target="toJ_cXs9ojzFI7kkRFtx-6">
          <mxGeometry relative="1" as="geometry">
            <Array as="points">
              <mxPoint x="630" y="248" />
              <mxPoint x="630" y="248" />
            </Array>
          </mxGeometry>
        </mxCell>
        <mxCell id="toJ_cXs9ojzFI7kkRFtx-69" value="n:1" style="edgeLabel;html=1;align=center;verticalAlign=middle;resizable=0;points=[];" vertex="1" connectable="0" parent="toJ_cXs9ojzFI7kkRFtx-59">
          <mxGeometry x="-0.0914" y="-1" relative="1" as="geometry">
            <mxPoint x="8" y="-7" as="offset" />
          </mxGeometry>
        </mxCell>
      </root>
    </mxGraphModel>
  </diagram>
</mxfile>
